<svg width="104" height="104" viewBox="0 0 104 104" fill="none" xmlns="http://www.w3.org/2000/svg">
<path d="M104 52C104 80.7189 80.7189 104 52 104C23.2811 104 0 80.7189 0 52C0 23.2811 23.2811 0 52 0C80.7189 0 104 23.2811 104 52ZM45.9852 79.5336L84.5658 40.9529C85.8759 39.6429 85.8759 37.5186 84.5658 36.2086L79.8215 31.4642C78.5114 30.1539 76.3872 30.1539 75.0769 31.4642L43.6129 62.928L28.9231 48.2382C27.613 46.9281 25.4888 46.9281 24.1785 48.2382L19.4342 52.9825C18.1241 54.2926 18.1241 56.4169 19.4342 57.7269L41.2406 79.5334C42.5509 80.8436 44.6749 80.8436 45.9852 79.5336Z" fill="#235D3A"/>
</svg>
